<svg class="railroad-diagram" width="917" height="72" viewBox="0 0 917 72">
<g transform="translate(.5 .5)">
<path d="M 20 31 v 20 m 10 -20 v 20 m -10 -10 h 20.5"></path>
<g>
<path d="M40 41h0"></path>
<path d="M876 41h0"></path>
<path d="M40 41h10"></path>
<g>
<path d="M50 41h0"></path>
<path d="M150 41h0"></path>
<rect x="50" y="30" width="100" height="22"></rect>
<text x="100" y="45">identifier</text>
</g>
<path d="M150 41h10"></path>
<path d="M160 41h10"></path>
<g>
<path d="M170 41h0"></path>
<path d="M206 41h0"></path>
<rect x="170" y="30" width="36" height="22"></rect>
<text x="188" y="45">ws</text>
</g>
<path d="M206 41h10"></path>
<path d="M216 41h10"></path>
<g>
<path d="M226 41h0"></path>
<path d="M326 41h0"></path>
<rect x="226" y="30" width="100" height="22"></rect>
<text x="276" y="45">identifier</text>
</g>
<path d="M326 41h10"></path>
<path d="M336 41h10"></path>
<g>
<path d="M346 41h0"></path>
<path d="M382 41h0"></path>
<rect x="346" y="30" width="36" height="22"></rect>
<text x="364" y="45">ws</text>
</g>
<path d="M382 41h10"></path>
<path d="M392 41h10"></path>
<g>
<path d="M402 41h0"></path>
<path d="M438 41h0"></path>
<rect x="402" y="30" width="36" height="22" rx="10" ry="10"></rect>
<text x="420" y="45">-></text>
</g>
<path d="M438 41h10"></path>
<path d="M448 41h10"></path>
<g>
<path d="M458 41h0"></path>
<path d="M494 41h0"></path>
<rect x="458" y="30" width="36" height="22"></rect>
<text x="476" y="45">ws</text>
</g>
<path d="M494 41h10"></path>
<path d="M504 41h10"></path>
<g>
<path d="M514 41h0"></path>
<path d="M654 41h0"></path>
<rect x="514" y="30" width="140" height="22"></rect>
<text x="584" y="45">list&#95;identifier</text>
</g>
<path d="M654 41h10"></path>
<path d="M664 41h10"></path>
<g>
<path d="M674 41h0"></path>
<path d="M710 41h0"></path>
<rect x="674" y="30" width="36" height="22"></rect>
<text x="692" y="45">ws</text>
</g>
<path d="M710 41h10"></path>
<g>
<path d="M720 41h0"></path>
<path d="M820 41h0"></path>
<path d="M720 41a10 10 0 0 0 10 -10v0a10 10 0 0 1 10 -10"></path>
<g>
<path d="M740 21h60"></path>
</g>
<path d="M800 21a10 10 0 0 1 10 10v0a10 10 0 0 0 10 10"></path>
<path d="M720 41h20"></path>
<g>
<path d="M740 41h0"></path>
<path d="M800 41h0"></path>
<rect x="740" y="30" width="60" height="22"></rect>
<text x="770" y="45">attrs</text>
</g>
<path d="M800 41h20"></path>
</g>
<path d="M820 41h10"></path>
<g>
<path d="M830 41h0"></path>
<path d="M866 41h0"></path>
<rect x="830" y="30" width="36" height="22"></rect>
<text x="848" y="45">ws</text>
</g>
<path d="M866 41h10"></path>
</g>
<path d="M 876 41 h 20 m -10 -10 v 20 m 10 -20 v 20"></path>
</g>
</svg>
