<svg class="railroad-diagram" width="209" height="81" viewBox="0 0 209 81">
<g transform="translate(.5 .5)">
<path d="M 20 31 v 20 m 10 -20 v 20 m -10 -10 h 20.5"></path>
<g>
<path d="M40 41h0"></path>
<path d="M168 41h0"></path>
<path d="M40 41a10 10 0 0 0 10 -10v0a10 10 0 0 1 10 -10"></path>
<g>
<path d="M60 21h88"></path>
</g>
<path d="M148 21a10 10 0 0 1 10 10v0a10 10 0 0 0 10 10"></path>
<path d="M40 41h20"></path>
<g>
<path d="M60 41h0"></path>
<path d="M148 41h0"></path>
<path d="M60 41h10"></path>
<g>
<path d="M70 41h0"></path>
<path d="M138 41h0"></path>
<rect x="70" y="30" width="68" height="22"></rect>
<text x="104" y="45">symbol</text>
</g>
<path d="M138 41h10"></path>
<path d="M70 41a10 10 0 0 0 -10 10v0a10 10 0 0 0 10 10"></path>
<g>
<path d="M70 61h68"></path>
</g>
<path d="M138 61a10 10 0 0 0 10 -10v0a10 10 0 0 0 -10 -10"></path>
</g>
<path d="M148 41h20"></path>
</g>
<path d="M 168 41 h 20 m -10 -10 v 20 m 10 -20 v 20"></path>
</g>
</svg>
