<svg class="railroad-diagram" width="201" height="81" viewBox="0 0 201 81">
<g transform="translate(.5 .5)">
<path d="M 20 31 v 20 m 10 -20 v 20 m -10 -10 h 20.5"></path>
<g>
<path d="M40 41h0"></path>
<path d="M160 41h0"></path>
<path d="M40 41a10 10 0 0 0 10 -10v0a10 10 0 0 1 10 -10"></path>
<g>
<path d="M60 21h80"></path>
</g>
<path d="M140 21a10 10 0 0 1 10 10v0a10 10 0 0 0 10 10"></path>
<path d="M40 41h20"></path>
<g>
<path d="M60 41h0"></path>
<path d="M140 41h0"></path>
<path d="M60 41h10"></path>
<g>
<path d="M70 41h0"></path>
<path d="M130 41h0"></path>
<rect x="70" y="30" width="60" height="22"></rect>
<text x="100" y="45">state</text>
</g>
<path d="M130 41h10"></path>
<path d="M70 41a10 10 0 0 0 -10 10v0a10 10 0 0 0 10 10"></path>
<g>
<path d="M70 61h60"></path>
</g>
<path d="M130 61a10 10 0 0 0 10 -10v0a10 10 0 0 0 -10 -10"></path>
</g>
<path d="M140 41h20"></path>
</g>
<path d="M 160 41 h 20 m -10 -10 v 20 m 10 -20 v 20"></path>
</g>
</svg>
