<svg class="railroad-diagram" width="409" height="62" viewBox="0 0 409 62">
<g transform="translate(.5 .5)">
<path d="M 20 21 v 20 m 10 -20 v 20 m -10 -10 h 20.5"></path>
<g>
<path d="M40 31h0"></path>
<path d="M368 31h0"></path>
<path d="M40 31h10"></path>
<g>
<path d="M50 31h0"></path>
<path d="M158 31h0"></path>
<rect x="50" y="20" width="108" height="22"></rect>
<text x="104" y="35">block&#95;start</text>
</g>
<path d="M158 31h10"></path>
<path d="M168 31h10"></path>
<g>
<path d="M178 31h0"></path>
<path d="M246 31h0"></path>
<rect x="178" y="20" width="68" height="22"></rect>
<text x="212" y="35">blocks</text>
</g>
<path d="M246 31h10"></path>
<path d="M256 31h10"></path>
<g>
<path d="M266 31h0"></path>
<path d="M358 31h0"></path>
<rect x="266" y="20" width="92" height="22"></rect>
<text x="312" y="35">block&#95;end</text>
</g>
<path d="M358 31h10"></path>
</g>
<path d="M 368 31 h 20 m -10 -10 v 20 m 10 -20 v 20"></path>
</g>
</svg>
