<svg class="railroad-diagram" width="253" height="71" viewBox="0 0 253 71">
<g transform="translate(.5 .5)">
<path d="M 20 21 v 20 m 10 -20 v 20 m -10 -10 h 20.5"></path>
<path d="M40 31h10"></path>
<g>
<path d="M50 31h0"></path>
<path d="M202 31h0"></path>
<path d="M50 31h10"></path>
<g>
<path d="M60 31h0"></path>
<path d="M192 31h0"></path>
<rect x="60" y="20" width="132" height="22" rx="10" ry="10"></rect>
<text x="126" y="35">&#91;a-zA-Z&#95;0-9\-&#93;</text>
</g>
<path d="M192 31h10"></path>
<path d="M60 31a10 10 0 0 0 -10 10v0a10 10 0 0 0 10 10"></path>
<g>
<path d="M60 51h132"></path>
</g>
<path d="M192 51a10 10 0 0 0 10 -10v0a10 10 0 0 0 -10 -10"></path>
</g>
<path d="M202 31h10"></path>
<path d="M 212 31 h 20 m -10 -10 v 20 m 10 -20 v 20"></path>
</g>
</svg>
