<svg class="railroad-diagram" width="793" height="92" viewBox="0 0 793 92">
<g transform="translate(.5 .5)">
<path d="M 20 21 v 20 m 10 -20 v 20 m -10 -10 h 20.5"></path>
<g>
<path d="M40 31h0"></path>
<path d="M752 31h0"></path>
<path d="M40 31h10"></path>
<g>
<path d="M50 31h0"></path>
<path d="M78 31h0"></path>
<rect x="50" y="20" width="28" height="22" rx="10" ry="10"></rect>
<text x="64" y="35">#</text>
</g>
<path d="M78 31h10"></path>
<g>
<path d="M88 31h0"></path>
<path d="M752 31h0"></path>
<path d="M88 31h20"></path>
<g>
<path d="M108 31h0"></path>
<path d="M732 31h0"></path>
<path d="M108 31h10"></path>
<g>
<path d="M118 31h0"></path>
<path d="M202 31h0"></path>
<rect x="118" y="20" width="84" height="22"></rect>
<text x="160" y="35">hexdigit</text>
</g>
<path d="M202 31h10"></path>
<path d="M212 31h10"></path>
<g>
<path d="M222 31h0"></path>
<path d="M306 31h0"></path>
<rect x="222" y="20" width="84" height="22"></rect>
<text x="264" y="35">hexdigit</text>
</g>
<path d="M306 31h10"></path>
<path d="M316 31h10"></path>
<g>
<path d="M326 31h0"></path>
<path d="M410 31h0"></path>
<rect x="326" y="20" width="84" height="22"></rect>
<text x="368" y="35">hexdigit</text>
</g>
<path d="M410 31h10"></path>
<path d="M420 31h10"></path>
<g>
<path d="M430 31h0"></path>
<path d="M514 31h0"></path>
<rect x="430" y="20" width="84" height="22"></rect>
<text x="472" y="35">hexdigit</text>
</g>
<path d="M514 31h10"></path>
<path d="M524 31h10"></path>
<g>
<path d="M534 31h0"></path>
<path d="M618 31h0"></path>
<rect x="534" y="20" width="84" height="22"></rect>
<text x="576" y="35">hexdigit</text>
</g>
<path d="M618 31h10"></path>
<path d="M628 31h10"></path>
<g>
<path d="M638 31h0"></path>
<path d="M722 31h0"></path>
<rect x="638" y="20" width="84" height="22"></rect>
<text x="680" y="35">hexdigit</text>
</g>
<path d="M722 31h10"></path>
</g>
<path d="M732 31h20"></path>
<path d="M88 31a10 10 0 0 1 10 10v10a10 10 0 0 0 10 10"></path>
<g>
<path d="M108 61h156"></path>
<path d="M576 61h156"></path>
<path d="M264 61h10"></path>
<g>
<path d="M274 61h0"></path>
<path d="M358 61h0"></path>
<rect x="274" y="50" width="84" height="22"></rect>
<text x="316" y="65">hexdigit</text>
</g>
<path d="M358 61h10"></path>
<path d="M368 61h10"></path>
<g>
<path d="M378 61h0"></path>
<path d="M462 61h0"></path>
<rect x="378" y="50" width="84" height="22"></rect>
<text x="420" y="65">hexdigit</text>
</g>
<path d="M462 61h10"></path>
<path d="M472 61h10"></path>
<g>
<path d="M482 61h0"></path>
<path d="M566 61h0"></path>
<rect x="482" y="50" width="84" height="22"></rect>
<text x="524" y="65">hexdigit</text>
</g>
<path d="M566 61h10"></path>
</g>
<path d="M732 61a10 10 0 0 0 10 -10v-10a10 10 0 0 1 10 -10"></path>
</g>
</g>
<path d="M 752 31 h 20 m -10 -10 v 20 m 10 -20 v 20"></path>
</g>
</svg>
