<svg class="railroad-diagram" width="733" height="72" viewBox="0 0 733 72">
<g transform="translate(.5 .5)">
<path d="M 20 31 v 20 m 10 -20 v 20 m -10 -10 h 20.5"></path>
<g>
<path d="M40 41h0"></path>
<path d="M692 41h0"></path>
<path d="M40 41h10"></path>
<g>
<path d="M50 41h0"></path>
<path d="M158 41h0"></path>
<rect x="50" y="30" width="108" height="22" rx="10" ry="10"></rect>
<text x="104" y="45">transitions</text>
</g>
<path d="M158 41h10"></path>
<path d="M168 41h10"></path>
<g>
<path d="M178 41h0"></path>
<path d="M214 41h0"></path>
<rect x="178" y="30" width="36" height="22"></rect>
<text x="196" y="45">ws</text>
</g>
<path d="M214 41h10"></path>
<g>
<path d="M224 41h0"></path>
<path d="M324 41h0"></path>
<path d="M224 41a10 10 0 0 0 10 -10v0a10 10 0 0 1 10 -10"></path>
<g>
<path d="M244 21h60"></path>
</g>
<path d="M304 21a10 10 0 0 1 10 10v0a10 10 0 0 0 10 10"></path>
<path d="M224 41h20"></path>
<g>
<path d="M244 41h0"></path>
<path d="M304 41h0"></path>
<rect x="244" y="30" width="60" height="22"></rect>
<text x="274" y="45">attrs</text>
</g>
<path d="M304 41h20"></path>
</g>
<path d="M324 41h10"></path>
<g>
<path d="M334 41h0"></path>
<path d="M442 41h0"></path>
<rect x="334" y="30" width="108" height="22"></rect>
<text x="388" y="45">block&#95;start</text>
</g>
<path d="M442 41h10"></path>
<path d="M452 41h10"></path>
<g>
<path d="M462 41h0"></path>
<path d="M570 41h0"></path>
<rect x="462" y="30" width="108" height="22"></rect>
<text x="516" y="45">transitions</text>
</g>
<path d="M570 41h10"></path>
<path d="M580 41h10"></path>
<g>
<path d="M590 41h0"></path>
<path d="M682 41h0"></path>
<rect x="590" y="30" width="92" height="22"></rect>
<text x="636" y="45">block&#95;end</text>
</g>
<path d="M682 41h10"></path>
</g>
<path d="M 692 41 h 20 m -10 -10 v 20 m 10 -20 v 20"></path>
</g>
</svg>
