<svg class="railroad-diagram" width="449" height="92" viewBox="0 0 449 92">
<g transform="translate(.5 .5)">
<path d="M 20 21 v 20 m 10 -20 v 20 m -10 -10 h 20.5"></path>
<g>
<path d="M40 31h0"></path>
<path d="M408 31h0"></path>
<path d="M40 31h20"></path>
<g>
<path d="M60 31h0"></path>
<path d="M388 31h0"></path>
<path d="M60 31h10"></path>
<g>
<path d="M70 31h0"></path>
<path d="M170 31h0"></path>
<rect x="70" y="20" width="100" height="22"></rect>
<text x="120" y="35">identifier</text>
</g>
<path d="M170 31h10"></path>
<path d="M180 31h10"></path>
<g>
<path d="M190 31h0"></path>
<path d="M218 31h0"></path>
<rect x="190" y="20" width="28" height="22" rx="10" ry="10"></rect>
<text x="204" y="35">,</text>
</g>
<path d="M218 31h10"></path>
<path d="M228 31h10"></path>
<g>
<path d="M238 31h0"></path>
<path d="M378 31h0"></path>
<rect x="238" y="20" width="140" height="22"></rect>
<text x="308" y="35">list&#95;identifier</text>
</g>
<path d="M378 31h10"></path>
</g>
<path d="M388 31h20"></path>
<path d="M40 31a10 10 0 0 1 10 10v10a10 10 0 0 0 10 10"></path>
<g>
<path d="M60 61h114"></path>
<path d="M274 61h114"></path>
<rect x="174" y="50" width="100" height="22"></rect>
<text x="224" y="65">identifier</text>
</g>
<path d="M388 61a10 10 0 0 0 10 -10v-10a10 10 0 0 1 10 -10"></path>
</g>
<path d="M 408 31 h 20 m -10 -10 v 20 m 10 -20 v 20"></path>
</g>
</svg>
