<svg class="railroad-diagram" width="369" height="81" viewBox="0 0 369 81">
<g transform="translate(.5 .5)">
<path d="M 20 31 v 20 m 10 -20 v 20 m -10 -10 h 20.5"></path>
<g>
<path d="M40 41h0"></path>
<path d="M328 41h0"></path>
<path d="M40 41h10"></path>
<g>
<path d="M50 41h0"></path>
<path d="M130 41h0"></path>
<path d="M50 41h10"></path>
<g>
<path d="M60 41h0"></path>
<path d="M120 41h0"></path>
<rect x="60" y="30" width="60" height="22"></rect>
<text x="90" y="45">digit</text>
</g>
<path d="M120 41h10"></path>
<path d="M60 41a10 10 0 0 0 -10 10v0a10 10 0 0 0 10 10"></path>
<g>
<path d="M60 61h60"></path>
</g>
<path d="M120 61a10 10 0 0 0 10 -10v0a10 10 0 0 0 -10 -10"></path>
</g>
<path d="M130 41h10"></path>
<g>
<path d="M140 41h0"></path>
<path d="M328 41h0"></path>
<path d="M140 41a10 10 0 0 0 10 -10v0a10 10 0 0 1 10 -10"></path>
<g>
<path d="M160 21h148"></path>
</g>
<path d="M308 21a10 10 0 0 1 10 10v0a10 10 0 0 0 10 10"></path>
<path d="M140 41h20"></path>
<g>
<path d="M160 41h0"></path>
<path d="M308 41h0"></path>
<path d="M160 41h10"></path>
<g>
<path d="M170 41h0"></path>
<path d="M198 41h0"></path>
<rect x="170" y="30" width="28" height="22" rx="10" ry="10"></rect>
<text x="184" y="45">.</text>
</g>
<path d="M198 41h10"></path>
<path d="M208 41h10"></path>
<g>
<path d="M218 41h0"></path>
<path d="M298 41h0"></path>
<path d="M218 41h10"></path>
<g>
<path d="M228 41h0"></path>
<path d="M288 41h0"></path>
<rect x="228" y="30" width="60" height="22"></rect>
<text x="258" y="45">digit</text>
</g>
<path d="M288 41h10"></path>
<path d="M228 41a10 10 0 0 0 -10 10v0a10 10 0 0 0 10 10"></path>
<g>
<path d="M228 61h60"></path>
</g>
<path d="M288 61a10 10 0 0 0 10 -10v0a10 10 0 0 0 -10 -10"></path>
</g>
<path d="M298 41h10"></path>
</g>
<path d="M308 41h20"></path>
</g>
</g>
<path d="M 328 41 h 20 m -10 -10 v 20 m 10 -20 v 20"></path>
</g>
</svg>
