<svg class="railroad-diagram" width="401" height="81" viewBox="0 0 401 81">
<g transform="translate(.5 .5)">
<path d="M 20 31 v 20 m 10 -20 v 20 m -10 -10 h 20.5"></path>
<g>
<path d="M40 41h0"></path>
<path d="M360 41h0"></path>
<path d="M40 41h10"></path>
<g>
<path d="M50 41h0"></path>
<path d="M78 41h0"></path>
<rect x="50" y="30" width="28" height="22" rx="10" ry="10"></rect>
<text x="64" y="45">&#91;</text>
</g>
<path d="M78 41h10"></path>
<path d="M88 41h10"></path>
<g>
<path d="M98 41h0"></path>
<path d="M134 41h0"></path>
<rect x="98" y="30" width="36" height="22"></rect>
<text x="116" y="45">ws</text>
</g>
<path d="M134 41h10"></path>
<g>
<path d="M144 41h0"></path>
<path d="M256 41h0"></path>
<path d="M144 41a10 10 0 0 0 10 -10v0a10 10 0 0 1 10 -10"></path>
<g>
<path d="M164 21h72"></path>
</g>
<path d="M236 21a10 10 0 0 1 10 10v0a10 10 0 0 0 10 10"></path>
<path d="M144 41h20"></path>
<g>
<path d="M164 41h0"></path>
<path d="M236 41h0"></path>
<path d="M164 41h10"></path>
<g>
<path d="M174 41h0"></path>
<path d="M226 41h0"></path>
<rect x="174" y="30" width="52" height="22"></rect>
<text x="200" y="45">attr</text>
</g>
<path d="M226 41h10"></path>
<path d="M174 41a10 10 0 0 0 -10 10v0a10 10 0 0 0 10 10"></path>
<g>
<path d="M174 61h52"></path>
</g>
<path d="M226 61a10 10 0 0 0 10 -10v0a10 10 0 0 0 -10 -10"></path>
</g>
<path d="M236 41h20"></path>
</g>
<path d="M256 41h10"></path>
<g>
<path d="M266 41h0"></path>
<path d="M294 41h0"></path>
<rect x="266" y="30" width="28" height="22" rx="10" ry="10"></rect>
<text x="280" y="45">&#93;</text>
</g>
<path d="M294 41h10"></path>
<path d="M304 41h10"></path>
<g>
<path d="M314 41h0"></path>
<path d="M350 41h0"></path>
<rect x="314" y="30" width="36" height="22"></rect>
<text x="332" y="45">ws</text>
</g>
<path d="M350 41h10"></path>
</g>
<path d="M 360 41 h 20 m -10 -10 v 20 m 10 -20 v 20"></path>
</g>
</svg>
