<svg class="railroad-diagram" width="265" height="62" viewBox="0 0 265 62">
<g transform="translate(.5 .5)">
<path d="M 20 21 v 20 m 10 -20 v 20 m -10 -10 h 20.5"></path>
<g>
<path d="M40 31h0"></path>
<path d="M224 31h0"></path>
<path d="M40 31h10"></path>
<g>
<path d="M50 31h0"></path>
<path d="M78 31h0"></path>
<rect x="50" y="20" width="28" height="22" rx="10" ry="10"></rect>
<text x="64" y="35">"</text>
</g>
<path d="M78 31h10"></path>
<path d="M88 31h10"></path>
<g>
<path d="M98 31h0"></path>
<path d="M166 31h0"></path>
<rect x="98" y="20" width="68" height="22"></rect>
<text x="132" y="35">string</text>
</g>
<path d="M166 31h10"></path>
<path d="M176 31h10"></path>
<g>
<path d="M186 31h0"></path>
<path d="M214 31h0"></path>
<rect x="186" y="20" width="28" height="22" rx="10" ry="10"></rect>
<text x="200" y="35">"</text>
</g>
<path d="M214 31h10"></path>
</g>
<path d="M 224 31 h 20 m -10 -10 v 20 m 10 -20 v 20"></path>
</g>
</svg>
