<svg class="railroad-diagram" width="233" height="81" viewBox="0 0 233 81">
<g transform="translate(.5 .5)">
<path d="M 20 31 v 20 m 10 -20 v 20 m -10 -10 h 20.5"></path>
<g>
<path d="M40 41h0"></path>
<path d="M192 41h0"></path>
<path d="M40 41a10 10 0 0 0 10 -10v0a10 10 0 0 1 10 -10"></path>
<g>
<path d="M60 21h112"></path>
</g>
<path d="M172 21a10 10 0 0 1 10 10v0a10 10 0 0 0 10 10"></path>
<path d="M40 41h20"></path>
<g>
<path d="M60 41h0"></path>
<path d="M172 41h0"></path>
<path d="M60 41h10"></path>
<g>
<path d="M70 41h0"></path>
<path d="M162 41h0"></path>
<rect x="70" y="30" width="92" height="22" rx="10" ry="10"></rect>
<text x="116" y="45">&#91; \t\n\r&#93;</text>
</g>
<path d="M162 41h10"></path>
<path d="M70 41a10 10 0 0 0 -10 10v0a10 10 0 0 0 10 10"></path>
<g>
<path d="M70 61h92"></path>
</g>
<path d="M162 61a10 10 0 0 0 10 -10v0a10 10 0 0 0 -10 -10"></path>
</g>
<path d="M172 41h20"></path>
</g>
<path d="M 192 41 h 20 m -10 -10 v 20 m 10 -20 v 20"></path>
</g>
</svg>
